<svg xmlns="http://www.w3.org/2000/svg" viewBox="0 0 80 80" width="80" height="80">
  <rect width="80" height="80" rx="12" fill="#F5E6D0"/>
  <!-- Face -->
  <circle cx="40" cy="42" r="22" fill="#FDDBB4"/>
  <!-- Messy hair -->
  <ellipse cx="40" cy="22" rx="18" ry="12" fill="#8B5E3C"/>
  <path d="M24 24 Q20 12 26 10 Q28 20 28 22" fill="#8B5E3C"/>
  <path d="M56 24 Q60 12 54 10 Q52 20 52 22" fill="#8B5E3C"/>
  <path d="M30 18 Q32 10 36 12" fill="#8B5E3C" stroke="#8B5E3C" stroke-width="2"/>
  <!-- Eyes - warm, slightly confused -->
  <circle cx="33" cy="41" r="3.5" fill="white"/>
  <circle cx="47" cy="41" r="3.5" fill="white"/>
  <circle cx="33" cy="42" r="2" fill="#5C3A1E"/>
  <circle cx="47" cy="41" r="2" fill="#5C3A1E"/>
  <!-- One eyebrow raised -->
  <path d="M30 36 Q33 34 36 36" stroke="#8B5E3C" stroke-width="1.5" fill="none"/>
  <path d="M44 35 Q47 37 50 35" stroke="#8B5E3C" stroke-width="1.5" fill="none"/>
  <!-- Warm smile -->
  <path d="M33 50 Q40 56 47 50" stroke="#C0784A" stroke-width="2" fill="none" stroke-linecap="round"/>
  <!-- Rosy cheeks -->
  <circle cx="28" cy="47" r="4" fill="#F4A460" opacity="0.4"/>
  <circle cx="52" cy="47" r="4" fill="#F4A460" opacity="0.4"/>
  <!-- Pawn badge -->
  <circle cx="60" cy="18" r="8" fill="#D4A853"/>
  <path d="M60 14 m-2,0 a2,2 0 1,1 4,0 a2,2 0 1,1 -4,0 M58 16 l-2 5 l8 0 l-2-5 z" fill="#7B5A2A"/>
</svg>